<mxfile host="app.diagrams.net" agent="Mozilla/5.0 (Macintosh; Intel Mac OS X 10.15; rv:142.0) Gecko/20100101 Firefox/142.0" version="28.1.2">
  <diagram name="Seite-1" id="AA4rjZMqmfBqpMQ-M3gM">
    <mxGraphModel dx="1220" dy="702" grid="1" gridSize="10" guides="1" tooltips="1" connect="1" arrows="0" fold="1" page="1" pageScale="1" pageWidth="827" pageHeight="1169" math="1" shadow="0">
      <root>
        <mxCell id="0" />
        <mxCell id="1" parent="0" />
        <mxCell id="H68v5H8XHTDhCVfY4KbC-14" value="" style="rounded=0;whiteSpace=wrap;html=1;fillColor=#d5e8d4;strokeColor=#82b366;fontSize=15;" vertex="1" parent="1">
          <mxGeometry x="367" y="170" width="100" height="30" as="geometry" />
        </mxCell>
        <mxCell id="H68v5H8XHTDhCVfY4KbC-1" value="different-author class" style="text;html=1;align=center;verticalAlign=middle;resizable=0;points=[];autosize=1;strokeColor=none;fillColor=none;fontSize=15;" vertex="1" parent="1">
          <mxGeometry x="40" y="113" width="160" height="30" as="geometry" />
        </mxCell>
        <mxCell id="H68v5H8XHTDhCVfY4KbC-2" value="same-author class" style="text;html=1;align=center;verticalAlign=middle;resizable=0;points=[];autosize=1;strokeColor=none;fillColor=none;fontSize=15;" vertex="1" parent="1">
          <mxGeometry x="45" y="170" width="150" height="30" as="geometry" />
        </mxCell>
        <mxCell id="H68v5H8XHTDhCVfY4KbC-3" value="" style="endArrow=classic;html=1;rounded=0;strokeWidth=4;fillColor=#ffe6cc;strokeColor=#d79b00;fontSize=15;" edge="1" parent="1">
          <mxGeometry width="50" height="50" relative="1" as="geometry">
            <mxPoint x="40" y="200" as="sourcePoint" />
            <mxPoint x="40" y="100" as="targetPoint" />
          </mxGeometry>
        </mxCell>
        <mxCell id="H68v5H8XHTDhCVfY4KbC-4" value="difficulty" style="edgeLabel;html=1;align=center;verticalAlign=middle;resizable=0;points=[];rotation=-90;fontSize=15;" vertex="1" connectable="0" parent="H68v5H8XHTDhCVfY4KbC-3">
          <mxGeometry x="-0.6111" y="-2" relative="1" as="geometry">
            <mxPoint x="-16" y="-26" as="offset" />
          </mxGeometry>
        </mxCell>
        <mxCell id="H68v5H8XHTDhCVfY4KbC-9" value="" style="endArrow=classic;html=1;rounded=0;strokeWidth=5;fontSize=15;" edge="1" parent="1">
          <mxGeometry width="50" height="50" relative="1" as="geometry">
            <mxPoint x="182" y="159.5" as="sourcePoint" />
            <mxPoint x="232" y="159.5" as="targetPoint" />
          </mxGeometry>
        </mxCell>
        <mxCell id="H68v5H8XHTDhCVfY4KbC-11" value="" style="rounded=0;whiteSpace=wrap;html=1;fillColor=#ffe6cc;strokeColor=#d79b00;fontSize=15;" vertex="1" parent="1">
          <mxGeometry x="257" y="140" width="100" height="60" as="geometry" />
        </mxCell>
        <mxCell id="H68v5H8XHTDhCVfY4KbC-12" value="&lt;div&gt;# different-author&amp;nbsp;&lt;/div&gt;&lt;div&gt;predictions&lt;/div&gt;" style="text;html=1;align=center;verticalAlign=middle;resizable=0;points=[];autosize=1;strokeColor=none;fillColor=none;fontSize=15;" vertex="1" parent="1">
          <mxGeometry x="237" y="95" width="140" height="50" as="geometry" />
        </mxCell>
        <mxCell id="H68v5H8XHTDhCVfY4KbC-10" value="" style="endArrow=none;html=1;rounded=0;strokeWidth=2;fontSize=15;" edge="1" parent="1">
          <mxGeometry width="50" height="50" relative="1" as="geometry">
            <mxPoint x="237" y="200" as="sourcePoint" />
            <mxPoint x="477" y="200" as="targetPoint" />
          </mxGeometry>
        </mxCell>
        <mxCell id="H68v5H8XHTDhCVfY4KbC-15" value="&lt;div&gt;# same-author&amp;nbsp;&lt;/div&gt;&lt;div&gt;predictions&lt;/div&gt;" style="text;html=1;align=center;verticalAlign=middle;resizable=0;points=[];autosize=1;strokeColor=none;fillColor=none;fontSize=15;" vertex="1" parent="1">
          <mxGeometry x="361" y="95" width="120" height="50" as="geometry" />
        </mxCell>
        <mxCell id="H68v5H8XHTDhCVfY4KbC-16" value="" style="endArrow=classic;html=1;rounded=0;strokeWidth=2;fontSize=15;" edge="1" parent="1">
          <mxGeometry width="50" height="50" relative="1" as="geometry">
            <mxPoint x="238" y="201" as="sourcePoint" />
            <mxPoint x="238" y="91" as="targetPoint" />
          </mxGeometry>
        </mxCell>
        <mxCell id="H68v5H8XHTDhCVfY4KbC-17" value="" style="endArrow=classic;html=1;rounded=0;strokeWidth=5;fontSize=15;" edge="1" parent="1">
          <mxGeometry width="50" height="50" relative="1" as="geometry">
            <mxPoint x="480" y="160" as="sourcePoint" />
            <mxPoint x="530" y="160" as="targetPoint" />
          </mxGeometry>
        </mxCell>
        <mxCell id="H68v5H8XHTDhCVfY4KbC-18" value="$$\text{different-author class recall }\uparrow$$" style="text;html=1;align=center;verticalAlign=middle;resizable=0;points=[];autosize=1;strokeColor=none;fillColor=none;fontSize=15;" vertex="1" parent="1">
          <mxGeometry x="465" y="113" width="340" height="30" as="geometry" />
        </mxCell>
        <mxCell id="H68v5H8XHTDhCVfY4KbC-19" value="$$\text{same-author class precision }\uparrow$$" style="text;html=1;align=center;verticalAlign=middle;resizable=0;points=[];autosize=1;strokeColor=none;fillColor=none;fontSize=15;" vertex="1" parent="1">
          <mxGeometry x="465" y="170" width="340" height="30" as="geometry" />
        </mxCell>
      </root>
    </mxGraphModel>
  </diagram>
</mxfile>
